<svg width="33" height="33" viewBox="0 0 33 33" fill="none" xmlns="http://www.w3.org/2000/svg">
<path d="M28.875 16.5C28.875 18.9475 28.1492 21.3401 26.7894 23.3752C25.4297 25.4102 23.4969 26.9964 21.2357 27.933C18.9745 28.8696 16.4863 29.1147 14.0858 28.6372C11.6852 28.1597 9.48023 26.9811 7.74955 25.2504C6.01888 23.5198 4.84027 21.3148 4.36278 18.9142C3.88529 16.5137 4.13036 14.0255 5.06699 11.7643C6.00362 9.50306 7.58976 7.57035 9.62482 6.21056C11.6599 4.85078 14.0525 4.125 16.5 4.125C19.9596 4.13801 23.2802 5.48793 25.7675 7.8925L28.875 11" stroke="#93A2E7" stroke-width="2" stroke-linecap="round" stroke-linejoin="round"/>
<path d="M28.875 4.125V11H22" stroke="#93A2E7" stroke-width="2" stroke-linecap="round" stroke-linejoin="round"/>
<path d="M16 10.5V16.5L21.5 21" stroke="#794ED1" stroke-width="1.2" stroke-linecap="round"/>
</svg>
