<svg width="154" height="41" viewBox="0 0 154 41" fill="none" xmlns="http://www.w3.org/2000/svg">
<g clip-path="url(#clip0_1_27)">
<path d="M59.0935 6.22473C58.8074 4.80952 58.4171 4.03739 57.7149 3.39431C56.9338 2.64823 55.5027 2.21056 53.9676 2.21056C50.2724 2.21056 48.0088 5.16983 48.0088 9.98158C48.0088 14.6647 50.4029 17.6492 54.1757 17.6492C56.2055 17.6492 57.8186 16.7747 58.5992 15.2306C58.9896 14.4845 59.2496 13.6096 59.4579 12.323H61.956C61.3835 17.2891 58.7814 19.7594 54.1498 19.7594C51.6778 19.7594 49.8043 19.0646 48.3209 17.572C46.5517 15.7452 45.5887 13.095 45.5887 10.0072C45.5887 6.9708 46.5258 4.2949 48.2431 2.44222C49.648 0.898362 51.7038 0.100578 54.2537 0.100578C58.4171 0.100578 60.8112 2.10776 61.5657 6.22473H59.0935ZM67.0809 19.1674H64.8951V0.409593H67.0809V19.1674ZM79.9088 11.3966C79.9088 8.97799 78.3735 7.27962 76.1616 7.27962C73.9762 7.27962 72.4409 8.90063 72.2587 11.3966H79.9088ZM72.2066 13.1465C72.2327 14.4843 72.4147 15.2562 72.9353 16.0282C73.6637 17.1602 74.8346 17.778 76.2139 17.778C77.9573 17.778 79.1801 16.8516 79.7787 15.0761H81.9646C81.418 18.0095 79.2583 19.7592 76.136 19.7592C72.2848 19.7592 69.9428 17.0574 69.9428 12.606C69.9428 8.15455 72.3888 5.29809 76.1877 5.29809C78.7379 5.29809 80.8196 6.63614 81.7043 8.84933C82.0945 9.85272 82.2509 11.088 82.2509 13.1465H72.2066ZM93.3087 12.503C92.5801 12.8374 92.1375 12.9406 89.8218 13.2493C87.48 13.5837 86.5433 14.3041 86.5433 15.7194C86.5433 17.0833 87.532 17.8808 89.2234 17.8808C90.4985 17.8808 91.5655 17.469 92.45 16.6714C93.1003 16.0797 93.3087 15.6422 93.3087 14.9218V12.503ZM97.1076 19.5275C96.3791 19.7077 96.0929 19.7592 95.6244 19.7592C94.2196 19.7592 93.5427 19.1674 93.3867 17.7778C91.8514 19.1674 90.4723 19.7592 88.7551 19.7592C85.9967 19.7592 84.2795 18.2153 84.2795 15.7709C84.2795 14.021 85.0862 12.8374 86.6734 12.1685C87.5059 11.8341 87.9742 11.731 91.0448 11.3451C92.8144 11.1134 93.2825 10.779 93.3087 9.85252V9.2866C93.3087 8.00005 92.2419 7.27962 90.2642 7.27962C88.2346 7.27962 87.2459 8.0257 87.0637 9.67256H84.8779C84.93 8.33471 85.19 7.56258 85.8146 6.8678C86.7516 5.86441 88.3386 5.29849 90.3422 5.29849C93.6992 5.29849 95.4684 6.58484 95.4684 8.97799V16.9031C95.4684 17.572 95.8848 17.9582 96.6391 17.9582C96.7694 17.9582 96.8736 17.9582 97.1076 17.9065V19.5275ZM101.452 5.68446V8.1289C102.701 6.12172 103.768 5.29829 105.173 5.29829C105.433 5.29829 105.641 5.32414 106.006 5.37584V7.56278C103.013 7.48543 101.66 8.92648 101.634 12.1687V19.1674H99.4485V5.68446H101.452ZM124.766 19.2704H123.231L122.632 16.7742C120.759 18.8073 118.729 19.7592 116.153 19.7592C111.027 19.7592 107.462 15.7454 107.462 9.98138C107.462 6.61049 108.685 3.70312 110.897 1.90175C112.38 0.692352 114.254 0.10078 116.569 0.10078C120.915 0.10078 123.829 2.28792 124.506 6.09607H122.034C121.514 3.67727 119.432 2.21056 116.544 2.21056C112.536 2.21056 109.882 5.24699 109.882 9.85272C109.882 12.1685 110.637 14.4072 111.886 15.7454C113.005 16.9544 114.748 17.6492 116.674 17.6492C120.134 17.6492 122.632 15.2308 122.632 11.8856V11.3709H116.856V9.26095H124.766V19.2704ZM130.36 5.68446V8.1289C131.609 6.12172 132.675 5.29829 134.08 5.29829C134.341 5.29829 134.549 5.32414 134.913 5.37584V7.56278C131.921 7.48543 130.568 8.92648 130.542 12.1687V19.1674H128.356V5.68446H130.36ZM139.154 19.1674H136.994V5.68446H139.154V19.1674ZM139.154 3.11115H136.968V0.409189H139.154V3.11115ZM143.968 12.5288C143.968 15.6681 145.555 17.752 147.949 17.752C150.239 17.752 151.748 15.6935 151.748 12.5803C151.748 9.3379 150.265 7.30527 147.923 7.30527C145.555 7.30527 143.968 9.3896 143.968 12.5288ZM153.908 19.1676H151.982V17.3921C150.811 19.0646 149.51 19.7594 147.637 19.7594C143.942 19.7594 141.704 16.9546 141.704 12.4002C141.704 8.10305 144.02 5.29829 147.559 5.29829C149.38 5.29829 150.837 6.01892 151.748 7.38262V0.409593H153.908V19.1676ZM54.1214 33.1831C54.1214 33.6937 54.3069 34.0762 54.6792 34.3315C55.0509 34.5868 55.5485 34.7143 56.171 34.7143H56.4216C56.7249 34.7143 56.9528 34.7783 57.1048 34.9057C57.2561 35.0334 57.3321 35.2473 57.3321 35.5478C57.3321 35.9382 57.2602 36.1895 57.116 36.3018C56.9716 36.4147 56.7402 36.4708 56.4216 36.4708H55.9433C55.4267 36.4708 54.9635 36.3621 54.5532 36.1442C54.1422 35.9269 53.8522 35.6003 53.6839 35.1649C53.4227 35.6601 53.0622 36.0018 52.6024 36.1895C52.1423 36.3775 51.5479 36.4708 50.8196 36.4708H45.7637C45.6118 36.4708 45.5358 36.3957 45.5358 36.2454V34.9395C45.5358 34.7896 45.6118 34.7143 45.7637 34.7143H50.1133C50.5381 34.7143 50.88 34.6805 51.1382 34.6131C51.396 34.5454 51.5937 34.4329 51.7301 34.2754C51.867 34.1175 51.9578 33.9112 52.0036 33.6559C52.0491 33.4009 52.072 33.0781 52.072 32.6875V30.8859C52.072 29.3699 51.2064 28.6115 49.4757 28.6115H46.834C46.682 28.6115 46.6064 28.5366 46.6064 28.3863V27.08C46.6064 26.9303 46.682 26.8552 46.834 26.8552H50.1817C51.3353 26.8552 52.2803 27.1782 53.0168 27.8232C53.7529 28.4691 54.1214 29.4824 54.1214 30.8633V33.1831Z" fill="white"/>
<path d="M60.1562 40.6591C60.0042 40.6591 59.9283 40.5839 59.9283 40.4341V38.79C59.9283 38.6398 60.0042 38.5652 60.1562 38.5652H61.7046C61.8563 38.5652 61.9323 38.6398 61.9323 38.79V40.4341C61.9323 40.5839 61.8563 40.6591 61.7046 40.6591H60.1562ZM57.3779 40.6591C57.2259 40.6591 57.1503 40.5839 57.1503 40.4341V38.79C57.1503 38.6398 57.2259 38.5652 57.3779 38.5652H58.9264C59.078 38.5652 59.1544 38.6398 59.1544 38.79V40.4341C59.1544 40.5839 59.078 40.6591 58.9264 40.6591H57.3779ZM56.3987 36.4706C56.0952 36.4706 55.8673 36.4183 55.7153 36.3131C55.564 36.2082 55.4878 35.998 55.4878 35.6827C55.4878 35.3075 55.5601 35.052 55.7039 34.9168C55.8485 34.7819 56.0797 34.7143 56.3987 34.7143H57.97C58.3492 34.7143 58.6266 34.628 58.801 34.4551C58.9757 34.2829 59.0631 33.971 59.0631 33.5208V27.4855C59.0631 27.3353 59.1391 27.2601 59.291 27.2601H60.7483C60.8996 27.2601 60.9762 27.3353 60.9762 27.4855V33.6333C60.9762 34.6092 60.7708 35.326 60.3611 35.7839C59.9511 36.242 59.2679 36.4706 58.3117 36.4706H56.3987ZM62.9119 40.9521C62.7599 40.9521 62.6839 40.877 62.6839 40.7267V39.4208C62.6839 39.2703 62.7599 39.1958 62.9119 39.1958H63.4355C64.6655 39.1958 65.2801 38.5572 65.2801 37.2815V27.4855C65.2801 27.3355 65.356 27.2604 65.508 27.2604H66.9655C67.1168 27.2604 67.1932 27.3355 67.1932 27.4855V33.1829C67.1932 33.6935 67.3789 34.0762 67.7512 34.3315C68.1229 34.587 68.6201 34.7145 69.2426 34.7145H69.4932C69.7965 34.7145 70.0245 34.7783 70.1764 34.9055C70.328 35.0332 70.4041 35.2471 70.4041 35.5476C70.4041 35.938 70.332 36.1893 70.1878 36.3016C70.0432 36.4145 69.812 36.4708 69.4932 36.4708H69.0151C68.2253 36.4708 67.618 36.2305 67.1932 35.7502V37.2363C67.1932 38.4525 66.8815 39.3755 66.2594 40.0063C65.6369 40.6367 64.726 40.9521 63.5266 40.9521H62.9119Z" fill="white"/>
<path d="M74.412 40.6144C74.2601 40.6144 74.1841 40.5393 74.1841 40.389V38.7452C74.1841 38.5949 74.2601 38.52 74.412 38.52H75.9608C76.1122 38.52 76.1881 38.5949 76.1881 38.7452V40.389C76.1881 40.5393 76.1122 40.6144 75.9608 40.6144H74.412ZM74.822 28.6113C74.3056 28.6113 73.8314 28.7168 73.3984 28.9268C72.9642 29.1382 72.5742 29.4285 72.2487 29.7826C72.1574 29.8878 72.051 29.8951 71.9299 29.805L70.9276 28.9943C70.7912 28.8896 70.7683 28.7842 70.8592 28.679C71.2844 28.1539 71.8118 27.7184 72.4423 27.3729C73.072 27.0277 73.8426 26.855 74.7535 26.855C75.8011 26.855 76.6595 27.0164 77.3293 27.3389C77.9986 27.6621 78.5294 28.0862 78.9207 28.6113C79.312 29.1373 79.5845 29.7452 79.7385 30.4355C79.8931 31.1383 79.9702 31.8556 79.9685 32.5748C79.9685 33.3257 79.9031 33.9486 79.773 34.444C79.6423 34.9393 79.4428 35.3374 79.174 35.6375C78.9054 35.938 78.5604 36.1519 78.1399 36.2793C77.7194 36.4072 77.2279 36.4708 76.6667 36.4708H69.493C68.886 36.4708 68.5821 36.1707 68.5821 35.57C68.5821 35.1948 68.6546 34.9585 68.7984 34.8607C68.9432 34.7631 69.1742 34.7145 69.493 34.7145H75.9608C76.3852 34.7145 76.7271 34.6805 76.9855 34.6129C77.2435 34.5452 77.4408 34.4293 77.5776 34.2639C77.714 34.0989 77.8051 33.8777 77.8507 33.5996C77.8964 33.3219 77.9191 32.9804 77.9191 32.5748C77.9191 31.9895 77.8656 31.4527 77.7598 30.9647C77.653 30.4771 77.4824 30.0564 77.2471 29.7036C77.0116 29.3511 76.6969 29.0811 76.3023 28.8931C75.9071 28.7054 75.4138 28.6113 74.822 28.6113ZM81.4262 40.9521C81.2742 40.9521 81.1982 40.877 81.1982 40.7267V39.4208C81.1982 39.2703 81.2742 39.1958 81.4262 39.1958H81.9499C83.1796 39.1958 83.7942 38.5572 83.7942 37.2815V27.4855C83.7942 27.3355 83.8702 27.2604 84.0221 27.2604H85.4796C85.6312 27.2604 85.7073 27.3355 85.7073 27.4855V33.1829C85.7073 33.6935 85.8928 34.0762 86.2651 34.3315C86.6371 34.587 87.1344 34.7145 87.7569 34.7145H88.0073C88.3108 34.7145 88.5388 34.7783 88.6907 34.9055C88.8421 35.0332 88.9183 35.2471 88.9183 35.5476C88.9183 35.938 88.8462 36.1893 88.7022 36.3016C88.5576 36.4145 88.3264 36.4708 88.0073 36.4708H87.5292C86.7394 36.4708 86.1322 36.2305 85.7073 35.7502V37.2363C85.7073 38.4525 85.3959 39.3755 84.7735 40.0063C84.151 40.6367 83.2401 40.9521 82.0408 40.9521H81.4262Z" fill="white"/>
<path d="M92.1065 40.6591C91.9545 40.6591 91.879 40.5839 91.879 40.4341V38.79C91.879 38.6398 91.9545 38.5652 92.1065 38.5652H93.6553C93.807 38.5652 93.883 38.6398 93.883 38.79V40.4341C93.883 40.5839 93.807 40.6591 93.6553 40.6591H92.1065ZM89.3284 40.6591C89.1766 40.6591 89.1006 40.5839 89.1006 40.4341V38.79C89.1006 38.6398 89.1766 38.5652 89.3284 38.5652H90.8767C91.0287 38.5652 91.1047 38.6398 91.1047 38.79V40.4341C91.1047 40.5839 91.0287 40.6591 90.8767 40.6591H89.3284ZM88.1668 36.4706C87.8635 36.4706 87.6358 36.4183 87.4838 36.3131C87.3321 36.2082 87.2559 35.998 87.2559 35.6827C87.2559 35.3075 87.3284 35.052 87.4724 34.9168C87.6168 34.7819 87.8482 34.7143 88.1668 34.7143H89.7152C90.0947 34.7143 90.3719 34.628 90.5467 34.4551C90.7209 34.2829 90.8087 33.971 90.8087 33.5208V27.4855C90.8087 27.3353 90.8843 27.2601 91.0363 27.2601H92.4937C92.6455 27.2601 92.7215 27.3353 92.7215 27.4855V33.1831C92.7215 33.6933 92.9071 34.0762 93.2795 34.3313C93.6514 34.5868 94.1485 34.7143 94.7711 34.7143H95.0443C95.3478 34.7143 95.5754 34.7783 95.7273 34.9057C95.8791 35.0334 95.9553 35.2473 95.9553 35.5474C95.9553 35.938 95.883 36.1893 95.7388 36.3018C95.5946 36.4143 95.3634 36.4706 95.0443 36.4706H94.5433C94.0572 36.4706 93.6324 36.3731 93.268 36.178C92.9037 35.9828 92.6226 35.6902 92.4255 35.2998C92.0458 36.0804 91.256 36.4706 90.0571 36.4706H88.1668Z" fill="white"/>
<path d="M95.0441 36.4706C94.7406 36.4706 94.5127 36.4185 94.3607 36.3131C94.2094 36.208 94.1332 35.9978 94.1332 35.6825C94.1332 35.3073 94.2055 35.052 94.3493 34.9168C94.4939 34.7819 94.7251 34.7143 95.0441 34.7143H96.4787C96.858 34.7143 97.1352 34.6278 97.31 34.4553C97.4844 34.2829 97.5719 33.971 97.5719 33.5206V21.3826C97.5719 21.2327 97.6478 21.1576 97.7998 21.1576H99.2569C99.4086 21.1576 99.4848 21.2327 99.4848 21.3826V33.1829C99.4848 33.6935 99.6703 34.076 100.043 34.3313C100.414 34.587 100.912 34.7143 101.534 34.7143H101.807C102.111 34.7143 102.339 34.7785 102.491 34.9057C102.642 35.0332 102.718 35.2473 102.718 35.5476C102.718 35.938 102.646 36.1893 102.502 36.3018C102.358 36.4145 102.127 36.4706 101.807 36.4706H101.307C100.82 36.4706 100.396 36.3733 100.031 36.1779C99.6668 35.983 99.3858 35.6902 99.1887 35.2998C98.8092 36.0804 98.0196 36.4706 96.8202 36.4706H95.0441Z" fill="white"/>
<path d="M105.816 27.2604H107.842C108.996 27.2604 109.941 27.5831 110.678 28.2286C111.414 28.8745 111.782 29.8878 111.782 31.2687V32.62C111.782 33.3708 111.717 33.9934 111.586 34.4889C111.456 34.9845 111.256 35.3788 110.988 35.6714C110.719 35.9641 110.378 36.1707 109.965 36.2905C109.552 36.4108 109.057 36.4706 108.48 36.4706H101.785C101.178 36.4706 100.874 36.1707 100.874 35.5698C100.874 35.1948 100.946 34.9583 101.09 34.8605C101.235 34.7632 101.466 34.7143 101.785 34.7143H107.774C108.199 34.7143 108.541 34.6804 108.799 34.6129C109.057 34.5454 109.254 34.4327 109.391 34.2752C109.528 34.1173 109.619 33.9112 109.664 33.6558C109.71 33.4007 109.733 33.0781 109.733 32.6877V31.2913C109.733 29.7753 108.867 29.0169 107.137 29.0169H103.47C103.318 29.0169 103.242 28.942 103.242 28.7915V27.5304C103.242 27.4559 103.269 27.3842 103.322 27.3165C103.361 27.2653 103.403 27.2165 103.448 27.1703L108.435 21.3604C108.525 21.2556 108.624 21.233 108.731 21.2927L109.825 22.1935C109.948 22.2838 109.978 22.3888 109.917 22.5088L105.816 27.2604ZM13.4409 0.132698H0.0531006V39.012H26.8789V26.0881H13.3972L13.419 13.0077H26.8789V26.0881H40.1707V0.1329L13.4409 0.132698Z" fill="white"/>
</g>
<defs>
<clipPath id="clip0_1_27">
<rect width="154" height="41" fill="white"/>
</clipPath>
</defs>
</svg>
